<svg xmlns="http://www.w3.org/2000/svg" viewBox="0 0 120 40" fill="#1A1A1A">
  <!-- Off Season: stylized OS monogram -->
  <g transform="translate(30, 2)">
    <!-- O -->
    <path d="M18 4C10 4 4 10 4 18s6 14 14 14 14-6 14-14S26 4 18 4zM18 28c-5.5 0-10-4.5-10-10S12.5 8 18 8s10 4.5 10 10-4.5 10-10 10z"/>
    <!-- S overlapping -->
    <path d="M38 10c-2-3-5.5-4.5-9-4-3 0.5-5.5 2.5-6.5 5.5-0.5 2 0 4 1 5.5 1.5 2 3.5 3 5.5 3.5 1.5 0.3 2.5 1.5 2.2 3-0.3 1.2-1.5 2-2.8 2-1.5 0-3-0.8-3.5-2l-3.5 2c1.5 3 4.5 4.5 8 4.2 3-0.3 5.5-2.5 6.2-5.5 0.5-2 0-4.2-1.2-5.8-1.5-2-3.5-3-5.8-3.5-1.2-0.3-2-1.2-1.8-2.5 0.3-1 1.2-1.8 2.2-1.8 1.2 0 2.2 0.5 2.8 1.5L38 10z"/>
  </g>
</svg>